<?xml version="1.0" encoding="utf-8"?>
<!-- Generator: Adobe Illustrator 15.0.0, SVG Export Plug-In . SVG Version: 6.00 Build 0)  -->
<!DOCTYPE svg PUBLIC "-//W3C//DTD SVG 1.1//EN" "http://www.w3.org/Graphics/SVG/1.1/DTD/svg11.dtd">
<svg version="1.1" id="Layer_1" xmlns="http://www.w3.org/2000/svg" xmlns:xlink="http://www.w3.org/1999/xlink" x="0px" y="0px"
	 width="32px" height="32px" viewBox="0 0 32 32" enable-background="new 0 0 32 32" xml:space="preserve">
<path fill="#555555" d="M11.737,9.91c0-1.469-1.047-2.7-2.435-2.983v-1.28c0-0.335-0.273-0.608-0.609-0.608
	c-0.336,0-0.609,0.273-0.609,0.608v1.28C6.696,7.21,5.648,8.44,5.648,9.91c0,1.471,1.048,2.7,2.436,2.983v13.458
	c0,0.336,0.273,0.609,0.609,0.609c0.336,0,0.609-0.273,0.609-0.609V12.893C10.69,12.609,11.737,11.38,11.737,9.91z M8.693,11.738
	c-1.007,0-1.826-0.821-1.826-1.828s0.819-1.826,1.826-1.826c1.008,0,1.828,0.819,1.828,1.826S9.701,11.738,8.693,11.738z"/>
<path fill="#555555" d="M19.044,21.479c0-1.47-1.047-2.7-2.435-2.983V5.647c0-0.335-0.273-0.608-0.609-0.608
	s-0.609,0.273-0.609,0.608v12.849c-1.388,0.283-2.436,1.514-2.436,2.983c0,1.471,1.048,2.7,2.436,2.982v1.889
	c0,0.336,0.273,0.609,0.609,0.609s0.609-0.273,0.609-0.609v-1.889C17.997,24.18,19.044,22.95,19.044,21.479z M16,23.306
	c-1.007,0-1.827-0.818-1.827-1.826s0.82-1.826,1.827-1.826c1.008,0,1.826,0.818,1.826,1.826S17.008,23.306,16,23.306z"/>
<path fill="#555555" d="M26.352,14.172c0-1.47-1.048-2.7-2.437-2.983V5.647c0-0.335-0.272-0.608-0.608-0.608
	c-0.335,0-0.608,0.273-0.608,0.608v5.542c-1.389,0.283-2.437,1.513-2.437,2.983c0,1.471,1.048,2.701,2.437,2.983v9.195
	c0,0.336,0.273,0.609,0.608,0.609c0.336,0,0.608-0.273,0.608-0.609v-9.195C25.304,16.873,26.352,15.644,26.352,14.172z
	 M23.307,15.999c-1.007,0-1.826-0.819-1.826-1.826s0.819-1.826,1.826-1.826c1.008,0,1.826,0.819,1.826,1.826
	S24.314,15.999,23.307,15.999z"/>
</svg>
