<?xml version="1.0" encoding="utf-8"?>
<!-- Generator: Adobe Illustrator 15.0.0, SVG Export Plug-In . SVG Version: 6.00 Build 0)  -->
<!DOCTYPE svg PUBLIC "-//W3C//DTD SVG 1.1//EN" "http://www.w3.org/Graphics/SVG/1.1/DTD/svg11.dtd">
<svg version="1.1" id="Layer_1" xmlns="http://www.w3.org/2000/svg" xmlns:xlink="http://www.w3.org/1999/xlink" x="0px" y="0px"
	 width="25px" height="25px" viewBox="-4.5 -4.5 25 25" enable-background="new -4.5 -4.5 25 25" xml:space="preserve">
<path d="M19.229,17.188l-4.527-4.527c1.278-1.709,2.048-3.82,2.048-6.119c0-5.638-4.57-10.208-10.208-10.208
	S-3.667,0.903-3.667,6.542S0.903,16.75,6.542,16.75c2.298,0,4.41-0.77,6.116-2.048l4.53,4.527c0.269,0.268,0.554,0.437,1.021,0.437
	c0.807,0,1.458-0.651,1.458-1.458C19.666,17.89,19.587,17.546,19.229,17.188z M-0.75,6.542c0-4.028,3.264-7.292,7.292-7.292
	s7.292,3.264,7.292,7.292s-3.264,7.292-7.292,7.292S-0.75,10.569-0.75,6.542z"/>
</svg>
