<?xml version="1.0" encoding="utf-8"?>
<!-- Generator: Adobe Illustrator 15.0.0, SVG Export Plug-In . SVG Version: 6.00 Build 0)  -->
<!DOCTYPE svg PUBLIC "-//W3C//DTD SVG 1.1//EN" "http://www.w3.org/Graphics/SVG/1.1/DTD/svg11.dtd">
<svg version="1.1" id="Layer_1" xmlns="http://www.w3.org/2000/svg" xmlns:xlink="http://www.w3.org/1999/xlink" x="0px" y="0px"
	 width="80px" height="80px" viewBox="0 0 80 80" enable-background="new 0 0 80 80" xml:space="preserve">
<g id="store_1_">
	<g>
		<g>
			<path fill="#78CFCF" d="M78.125,80.002H1.875c-0.698,0-1.251-0.562-1.251-1.248c0-0.699,0.553-1.252,1.251-1.252h76.25
				c0.695,0,1.251,0.553,1.251,1.252C79.376,79.439,78.82,80.002,78.125,80.002z"/>
		</g>
		<g>
			<path fill="#78CFCF" d="M23.748,61.807c-1.031,0-1.875-0.844-1.875-1.875v-9.637c0-1.025,0.844-1.875,1.875-1.875
				c1.041,0,1.875,0.85,1.875,1.875v9.637C25.623,60.963,24.789,61.807,23.748,61.807z"/>
		</g>
		<g>
			<path fill="#78CFCF" d="M52.501,72.666c-0.323,0-0.646-0.125-0.886-0.371c-0.491-0.488-0.491-1.273,0-1.762l12.502-12.424
				c0.488-0.492,1.28-0.482,1.765,0c0.491,0.494,0.485,1.293,0,1.773L53.381,72.295C53.135,72.541,52.812,72.666,52.501,72.666z"/>
			<path fill="#78CFCF" d="M58.75,72.656c-0.319,0-0.646-0.123-0.895-0.365c-0.482-0.494-0.482-1.289,0.013-1.768l6.249-6.217
				c0.488-0.486,1.28-0.486,1.765,0.01c0.485,0.49,0.485,1.279,0,1.768l-6.249,6.207C59.394,72.533,59.07,72.656,58.75,72.656z"/>
		</g>
	</g>
	<g>
		<path fill="#78CFCF" d="M6.256,78.242c0,0.689,0.556,1.242,1.244,1.242c0.686,0,1.248-0.553,1.248-1.242V45.588
			c-0.854-0.119-1.694-0.297-2.492-0.562V78.242z"/>
		<path fill="#78CFCF" d="M28.947,45.607v32.635c0,0.689,0.553,1.242,1.241,1.242c0.686,0,1.248-0.553,1.248-1.242V45.617
			c-0.407,0.039-0.792,0.117-1.196,0.117C29.794,45.734,29.374,45.648,28.947,45.607z"/>
		<path fill="#78CFCF" d="M71.249,78.242c0,0.689,0.562,1.242,1.251,1.242s1.244-0.553,1.244-1.242V45.025
			c-0.798,0.266-1.639,0.443-2.495,0.562V78.242z"/>
	</g>
	<path fill="#78CFCF" d="M73.524,0H6.476L0,28.961v2.314c0,5.903,4.804,10.707,10.707,10.707c4.354,0,8.086-2.605,9.77-6.348
		c1.668,3.743,5.405,6.348,9.764,6.348c4.345,0,8.092-2.605,9.76-6.348c1.668,3.743,5.415,6.348,9.76,6.348
		c4.358,0,8.096-2.605,9.764-6.348c1.684,3.743,5.415,6.348,9.77,6.348C75.196,41.982,80,37.179,80,31.276v-2.307L73.524,0z
		 M18.912,31.276c0,4.529-3.683,8.205-8.205,8.205c-4.529,0-8.208-3.676-8.208-8.205v-0.798h16.413V31.276z M19.229,27.938H2.842
		l5.68-25.415h12.508L19.229,27.938z M38.445,31.276c0,4.529-3.686,8.205-8.205,8.205c-4.529,0-8.212-3.676-8.212-8.205v-0.795
		h16.417V31.276z M38.52,27.93H21.893l1.805-25.399H38.52V27.93z M57.968,31.276c0,4.529-3.679,8.205-8.208,8.205
		c-4.52,0-8.205-3.676-8.205-8.205v-0.77h16.413V31.276z M41.18,27.908V2.54h15.127l1.981,25.368H41.18z M58.899,2.52h12.582
		l5.684,25.418H60.894L58.899,2.52z M77.501,31.276c0,4.529-3.679,8.205-8.208,8.205c-4.522,0-8.208-3.676-8.208-8.205v-0.77l0,0
		v-0.028h16.416V31.276z"/>
</g>
</svg>
